<svg width="83" height="89" viewBox="0 0 83 89" fill="none" xmlns="http://www.w3.org/2000/svg">
<path id="Vector" d="M41.5179 42.7548C39.37 42.7548 37.6273 44.6217 37.6273 46.9266C37.8121 59.4857 36.3077 71.5928 33.1369 83.7C32.6943 85.3896 33.4854 89 36.8848 89C38.5837 89 40.1449 87.7971 40.6279 85.9545C42.8213 77.6264 45.6598 64.1547 45.4069 46.9266C45.4086 44.6234 43.6675 42.7548 41.5179 42.7548ZM41.3785 28.5478C31.4477 28.5356 24.5175 36.7299 24.6553 46.1201C24.7769 54.4534 24.0474 62.7919 22.4879 70.8993C22.0518 73.1556 23.4071 75.3649 25.5096 75.829C27.6252 76.2932 29.671 74.8452 30.107 72.5889C31.7833 63.8818 32.5662 54.9314 32.4366 45.9897C32.3701 41.4789 35.6658 36.8655 41.2634 36.8915C46.3391 36.9732 50.528 41.2963 50.6042 46.5338C50.729 54.8862 50.1486 63.2786 48.8842 71.4868C48.5324 73.757 49.9687 75.9055 52.0875 76.281C55.3248 76.8598 56.4336 73.6562 56.5584 72.8444C57.9007 64.1478 58.5135 55.2513 58.3854 46.4034C58.2428 36.7038 50.6139 28.6938 41.3785 28.5478ZM23.4346 25.1095C21.7649 23.6597 19.3219 23.9274 17.9618 25.7144C13.8086 31.19 11.5763 38.1049 11.6801 45.1831C11.7757 51.7156 11.2797 58.2672 10.2033 64.6606C9.82393 66.929 11.2262 69.0984 13.3417 69.5086C16.6017 70.117 17.73 66.9342 17.8629 66.1433C19.0285 59.218 19.5651 52.1224 19.4613 45.0528C19.3851 39.8588 20.9527 34.9916 24.0004 30.9779C25.354 29.1909 25.1011 26.5644 23.4346 25.1095ZM41.1807 14.2748C38.6826 14.2035 36.1764 14.5251 33.7594 15.1387C31.6698 15.6706 30.3762 17.9165 30.869 20.1606C31.365 22.4012 33.4627 23.7814 35.5523 23.2599C37.3436 22.8062 39.1949 22.6046 41.064 22.6185C53.2919 22.8149 63.3913 33.3089 63.5778 46.0123C63.6734 52.5969 63.3703 59.2424 62.6732 65.7644C62.43 68.0537 63.962 70.124 66.0953 70.3847C68.8058 70.7237 70.2307 68.3197 70.4042 66.7152C71.1408 59.8001 71.4597 52.8412 71.359 45.8819C71.1061 28.7164 57.5684 14.5355 41.1807 14.2748ZM82.0436 35.3862C81.58 33.1403 79.5293 31.701 77.4057 32.2103C75.308 32.7075 73.9819 34.9325 74.4456 37.1836C75.2091 40.9052 75.2415 43.6865 75.2075 47.8914C75.1897 50.1981 76.9178 52.0789 79.0657 52.098H79.0981C81.2331 52.098 82.9709 50.2537 82.9887 47.9609C83.0179 44.1054 83.0536 40.2934 82.0436 35.3862ZM75.5398 19.6165C67.6451 7.55456 54.7266 0.224227 40.9813 0.00346511C29.6677 -0.142551 19.2036 4.33005 11.4207 12.679C3.90369 20.7499 -0.147422 31.4698 0.0211715 42.8747L0.00171837 46.6068C-0.0615043 48.91 1.62768 50.8325 3.77562 50.8986C3.81291 50.9021 3.85344 50.9021 3.89234 50.9021C5.9868 50.9021 7.7165 49.1116 7.77811 46.8519L7.80404 42.7426C7.66949 33.6166 10.9101 25.0365 16.9276 18.5805C23.2109 11.8359 31.7346 8.20815 40.8679 8.34895C52.1264 8.528 62.7089 14.5303 69.1754 24.4089C70.4091 26.2967 72.8326 26.7469 74.5931 25.4276C76.3504 24.103 76.7751 21.5008 75.5398 19.6165Z" fill="white"/>
</svg>
