<svg width="96" height="107" viewBox="0 0 96 107" fill="none" xmlns="http://www.w3.org/2000/svg">
<g clip-path="url(#clip0_141_76)">
<path d="M75.1 0H28.9C23.4344 0 19 3.83791 19 8.56836V82.8275C19 87.5579 23.4344 91.3958 28.9 91.3958H75.1C80.5656 91.3958 85 87.5579 85 82.8275V8.56836C85 3.83791 80.5656 0 75.1 0ZM52 85.6836C48.3494 85.6836 45.4 83.1309 45.4 79.9714C45.4 76.8118 48.3494 74.2591 52 74.2591C55.6506 74.2591 58.6 76.8118 58.6 79.9714C58.6 83.1309 55.6506 85.6836 52 85.6836ZM75.1 66.4048C75.1 67.5829 73.9862 68.5469 72.625 68.5469H31.375C30.0138 68.5469 28.9 67.5829 28.9 66.4048V10.7104C28.9 9.5323 30.0138 8.56836 31.375 8.56836H72.625C73.9862 8.56836 75.1 9.5323 75.1 10.7104V66.4048Z" fill="#2A17FF"/>
</g>
<defs>
<clipPath id="clip0_141_76">
<rect width="96" height="107" fill="white"/>
</clipPath>
</defs>
</svg>
